<svg width="19" height="20" viewBox="0 0 19 20" fill="none" xmlns="http://www.w3.org/2000/svg">
<g clip-path="url(#clip0)">
<path d="M4.2108 12.0863L3.54944 14.6852L1.13217 14.739C0.409762 13.3286 0 11.7149 0 10C0 8.34179 0.383117 6.77804 1.06222 5.40112H1.06274L3.21479 5.81644L4.15751 8.06815C3.9602 8.67366 3.85266 9.32366 3.85266 10C3.85273 10.7341 3.97905 11.4374 4.2108 12.0863Z" fill="#FBBB00"/>
<path d="M18.834 8.13184C18.9431 8.73676 19 9.36148 19 9.99996C19 10.7159 18.9285 11.4143 18.7923 12.0879C18.3298 14.3802 17.1214 16.3818 15.4475 17.7983L15.4469 17.7978L12.7363 17.6522L12.3527 15.1313C13.4634 14.4456 14.3315 13.3725 14.7888 12.0879H9.70886V8.13184H14.8629H18.834Z" fill="#518EF8"/>
<path d="M15.4469 17.7979L15.4474 17.7985C13.8194 19.176 11.7513 20.0001 9.5 20.0001C5.88217 20.0001 2.73674 17.8716 1.13217 14.7392L4.2108 12.0864C5.01307 14.3403 7.07854 15.9447 9.5 15.9447C10.5408 15.9447 11.5159 15.6485 12.3526 15.1315L15.4469 17.7979Z" fill="#28B446"/>
<path d="M15.5638 2.30219L12.4862 4.95437C11.6203 4.38461 10.5967 4.05547 9.50001 4.05547C7.02374 4.05547 4.91963 5.73348 4.15756 8.06812L1.06274 5.40109H1.06223C2.64331 2.1923 5.82841 0 9.50001 0C11.8051 0 13.9185 0.864297 15.5638 2.30219Z" fill="#F14336"/>
</g>
<defs>
<clipPath id="clip0">
<rect width="19" height="20" fill="white"/>
</clipPath>
</defs>
</svg>
