<svg width="189" height="183" viewBox="0 0 189 183" fill="none" xmlns="http://www.w3.org/2000/svg">
<path d="M54.2436 141.75H134.023C134.023 141.75 147.596 144.861 147.596 124.362L147.962 54.6311C147.962 54.6311 146.677 37.7942 128.52 42.0034C128.52 42.0034 121.184 46.3974 120.632 54.45V100.389C120.632 100.389 118.247 124.732 90.9209 123.449C90.9209 123.449 70.564 121.435 68.5457 96.3646L68.7273 54.2688C68.7273 54.2688 68.1791 36.5155 49.8369 41.6411C49.8369 41.6411 41.4008 45.2998 41.4008 55.5511V79.343H29.1169V52.9865C29.1169 52.9865 29.1169 29.3758 55.7101 29.0099C55.7101 29.0099 78.0852 27.7276 81.0183 55.5475V98.0092C81.0183 98.0092 82.4848 114.299 98.6237 111.003C98.6237 111.003 107.245 110.818 108.345 96.5422V52.9829C108.345 52.9829 106.145 30.1039 132.372 28.6405C132.372 28.6405 154.562 26.9923 160.25 52.7982V129.118C160.25 129.118 159.331 152.179 134.756 154.193L54.0585 154.377C54.0585 154.377 32.235 153.095 28.7502 130.585L28.9353 99.4727H41.0413V125.829C41.0377 125.826 40.1194 141.014 54.2436 141.75Z" fill="#FBB040"/>
<path d="M41.504 89.5197C41.504 92.8836 38.7703 95.608 35.3994 95.608C32.0285 95.608 29.2948 92.8836 29.2948 89.5197C29.2948 86.1559 32.0285 83.4279 35.3994 83.4279C38.7703 83.4279 41.504 86.1559 41.504 89.5197Z" fill="#8DC63F"/>
</svg>
