<svg width="40" height="14" viewBox="0 0 40 14" fill="none" xmlns="http://www.w3.org/2000/svg">
<path d="M8.54782 2.43607H1.17646C0.526639 2.43607 0 2.25162 0 2.02431C0 1.79699 0.526639 1.61255 1.17646 1.61255H8.54782C9.19765 1.61255 9.72428 1.79699 9.72428 2.02431C9.72428 2.25162 9.19765 2.43607 8.54782 2.43607Z" fill="black" fill-opacity="0.59"/>
<path d="M12.7602 3.91027C9.78872 3.91027 7.3714 3.06421 7.3714 2.02429C7.3714 0.984153 9.78872 0.138092 12.7602 0.138092C15.7316 0.138092 18.149 0.984153 18.149 2.02429C18.149 3.06424 15.7316 3.91027 12.7602 3.91027ZM12.7602 0.961645C11.0862 0.961645 9.72432 1.43838 9.72432 2.02429C9.72432 2.61019 11.0862 3.08672 12.7602 3.08672C14.4342 3.08672 15.796 2.61019 15.796 2.02429C15.796 1.43838 14.4342 0.961645 12.7602 0.961645Z" fill="black" fill-opacity="0.59"/>
<path d="M38.8236 2.43607H21.2402C20.5904 2.43607 20.0637 2.25162 20.0637 2.02431C20.0637 1.79699 20.5904 1.61255 21.2402 1.61255H38.8235C39.4733 1.61255 39.9999 1.79699 39.9999 2.02431C39.9999 2.25162 39.4734 2.43607 38.8236 2.43607Z" fill="black" fill-opacity="0.59"/>
<path d="M28.5561 8.886C25.5845 8.886 23.1673 8.03994 23.1673 7.00002C23.1673 5.9601 25.5846 5.11404 28.5561 5.11404C31.5275 5.11404 33.9449 5.9601 33.9449 7.00002C33.9449 8.03994 31.5276 8.886 28.5561 8.886ZM28.5561 5.9376C26.8821 5.9376 25.5202 6.41412 25.5202 7.00002C25.5202 7.58593 26.8821 8.06245 28.5561 8.06245C30.2301 8.06245 31.5919 7.58593 31.5919 7.00002C31.5919 6.41412 30.2301 5.9376 28.5561 5.9376Z" fill="black" fill-opacity="0.59"/>
<path d="M20.0763 7.41178H1.17646C0.526639 7.41178 0 7.22733 0 7.00002C0 6.7727 0.526639 6.58826 1.17646 6.58826H20.0763C20.7261 6.58826 21.2528 6.7727 21.2528 7.00002C21.2528 7.22733 20.7261 7.41178 20.0763 7.41178Z" fill="black" fill-opacity="0.59"/>
<path d="M38.8235 7.41178H32.7684C32.1186 7.41178 31.5919 7.22733 31.5919 7.00002C31.5919 6.7727 32.1186 6.58826 32.7684 6.58826H38.8235C39.4733 6.58826 40 6.7727 40 7.00002C40 7.22733 39.4733 7.41178 38.8235 7.41178Z" fill="black" fill-opacity="0.59"/>
<path d="M11.444 13.8619C8.47249 13.8619 6.05518 13.0158 6.05518 11.9757C6.05518 10.9358 8.47249 10.0897 11.444 10.0897C14.4154 10.0897 16.8327 10.9358 16.8327 11.9757C16.8327 13.0158 14.4154 13.8619 11.444 13.8619ZM11.444 10.9133C9.76995 10.9133 8.4081 11.3898 8.4081 11.9757C8.4081 12.5616 9.76995 13.0383 11.444 13.0383C13.118 13.0383 14.4798 12.5616 14.4798 11.9757C14.4798 11.3898 13.118 10.9133 11.444 10.9133Z" fill="black" fill-opacity="0.59"/>
<path d="M38.8236 12.3875H19.9237C19.2739 12.3875 18.7473 12.203 18.7473 11.9757C18.7473 11.7484 19.2739 11.564 19.9237 11.564H38.8236C39.4734 11.564 40 11.7484 40 11.9757C40 12.203 39.4734 12.3875 38.8236 12.3875Z" fill="black" fill-opacity="0.59"/>
<path d="M7.23162 12.3875H1.17646C0.526639 12.3875 0 12.203 0 11.9757C0 11.7484 0.526639 11.5639 1.17646 11.5639H7.23162C7.88144 11.5639 8.40808 11.7484 8.40808 11.9757C8.40808 12.203 7.88144 12.3875 7.23162 12.3875Z" fill="black" fill-opacity="0.59"/>
</svg>
