<svg width="49" height="22" viewBox="0 0 49 22" fill="none" xmlns="http://www.w3.org/2000/svg">
<path d="M10.4711 3.8281H1.44116C0.645132 3.8281 0 3.53826 0 3.18105C0 2.82384 0.645132 2.534 1.44116 2.534H10.4711C11.2671 2.534 11.9122 2.82384 11.9122 3.18105C11.9122 3.53826 11.2671 3.8281 10.4711 3.8281Z" fill="#D78100"/>
<path d="M47.5588 3.8281H26.0192C25.2231 3.8281 24.578 3.53826 24.578 3.18105C24.578 2.82384 25.2231 2.534 26.0192 2.534H47.5587C48.3547 2.534 48.9999 2.82384 48.9999 3.18105C48.9999 3.53826 48.3548 3.8281 47.5588 3.8281Z" fill="#D78100"/>
<path d="M15.6312 6.14469C11.9911 6.14469 9.02991 4.81517 9.02991 3.181C9.02991 1.5465 11.9911 0.21698 15.6312 0.21698C19.2712 0.21698 22.2324 1.5465 22.2324 3.181C22.2324 4.81521 19.2712 6.14469 15.6312 6.14469ZM15.6312 1.51114C13.5805 1.51114 11.9122 2.2603 11.9122 3.181C11.9122 4.10171 13.5805 4.85053 15.6312 4.85053C17.6818 4.85053 19.3501 4.10171 19.3501 3.181C19.3501 2.2603 17.6818 1.51114 15.6312 1.51114Z" fill="black"/>
<path d="M24.5935 11.6471H1.44116C0.645132 11.6471 0 11.3572 0 11C0 10.6428 0.645132 10.353 1.44116 10.353H24.5935C25.3895 10.353 26.0346 10.6428 26.0346 11C26.0346 11.3572 25.3895 11.6471 24.5935 11.6471Z" fill="#D78100"/>
<path d="M47.5589 11.6471H40.1413C39.3453 11.6471 38.7001 11.3572 38.7001 11C38.7001 10.6428 39.3453 10.353 40.1413 10.353H47.5589C48.3549 10.353 49 10.6428 49 11C49 11.3572 48.3549 11.6471 47.5589 11.6471Z" fill="#D78100"/>
<path d="M34.9812 13.9637C31.341 13.9637 28.3799 12.6342 28.3799 11C28.3799 9.36584 31.3412 8.03632 34.9812 8.03632C38.6212 8.03632 41.5825 9.36584 41.5825 11C41.5825 12.6342 38.6214 13.9637 34.9812 13.9637ZM34.9812 9.33047C32.9305 9.33047 31.2623 10.0793 31.2623 11C31.2623 11.9207 32.9305 12.6695 34.9812 12.6695C37.0319 12.6695 38.7001 11.9207 38.7001 11C38.7001 10.0793 37.0319 9.33047 34.9812 9.33047Z" fill="black"/>
<path d="M47.5589 19.466H24.4066C23.6105 19.466 22.9654 19.1762 22.9654 18.819C22.9654 18.4618 23.6105 18.1719 24.4066 18.1719H47.5589C48.3549 18.1719 49 18.4618 49 18.819C49 19.1762 48.3549 19.466 47.5589 19.466Z" fill="#D78100"/>
<path d="M8.85874 19.466H1.44116C0.645132 19.466 0 19.1762 0 18.8189C0 18.4617 0.645132 18.1719 1.44116 18.1719H8.85874C9.65477 18.1719 10.2999 18.4617 10.2999 18.8189C10.2999 19.1762 9.65477 19.466 8.85874 19.466Z" fill="#D78100"/>
<path d="M14.0189 21.783C10.3788 21.783 7.4176 20.4535 7.4176 18.819C7.4176 17.1848 10.3788 15.8553 14.0189 15.8553C17.6589 15.8553 20.6201 17.1848 20.6201 18.819C20.6201 20.4535 17.6589 21.783 14.0189 21.783ZM14.0189 17.1494C11.9682 17.1494 10.2999 17.8983 10.2999 18.819C10.2999 19.7397 11.9682 20.4888 14.0189 20.4888C16.0695 20.4888 17.7378 19.7397 17.7378 18.819C17.7378 17.8983 16.0695 17.1494 14.0189 17.1494Z" fill="black"/>
</svg>
