<svg width="52" height="19" viewBox="0 0 52 19" fill="none" xmlns="http://www.w3.org/2000/svg">
<path d="M5.84298 3.84195C6.73533 1.52699 8.96045 0 11.4415 0H41.1392C43.6949 0 45.9701 1.61891 46.8077 4.03344L49.2362 11.0334C50.5886 14.9317 47.6938 19 43.5676 19H8.74316C4.53058 19 1.62953 14.7726 3.14469 10.842L5.84298 3.84195Z" fill="black" fill-opacity="0.59"/>
<path d="M20.731 6.27539H18.2925V13H16.9443V6.27539H14.5273V5.17969H20.731V6.27539ZM25.4951 11.1792H22.4658L21.832 13H20.4194L23.3735 5.17969H24.5928L27.5522 13H26.1343L25.4951 11.1792ZM22.8472 10.0835H25.1138L23.9805 6.83936L22.8472 10.0835ZM31.1348 8.00488L32.7783 5.17969H34.3467L31.9834 9.05762L34.4004 13H32.8159L31.1348 10.1318L29.4482 13H27.8691L30.2915 9.05762L27.9229 5.17969H29.4912L31.1348 8.00488ZM36.8389 13H35.4854V5.17969H36.8389V13Z" fill="black" fill-opacity="0.59"/>
<path d="M20.731 6.27539V7.27539H21.731V6.27539H20.731ZM18.2925 6.27539V5.27539H17.2925V6.27539H18.2925ZM18.2925 13V14H19.2925V13H18.2925ZM16.9443 13H15.9443V14H16.9443V13ZM16.9443 6.27539H17.9443V5.27539H16.9443V6.27539ZM14.5273 6.27539H13.5273V7.27539H14.5273V6.27539ZM14.5273 5.17969V4.17969H13.5273V5.17969H14.5273ZM20.731 5.17969H21.731V4.17969H20.731V5.17969ZM20.731 5.27539H18.2925V7.27539H20.731V5.27539ZM17.2925 6.27539V13H19.2925V6.27539H17.2925ZM18.2925 12H16.9443V14H18.2925V12ZM17.9443 13V6.27539H15.9443V13H17.9443ZM16.9443 5.27539H14.5273V7.27539H16.9443V5.27539ZM15.5273 6.27539V5.17969H13.5273V6.27539H15.5273ZM14.5273 6.17969H20.731V4.17969H14.5273V6.17969ZM19.731 5.17969V6.27539H21.731V5.17969H19.731ZM25.4951 11.1792L26.4387 10.848L26.2039 10.1792H25.4951V11.1792ZM22.4658 11.1792V10.1792H21.7551L21.5214 10.8505L22.4658 11.1792ZM21.832 13V14H22.5428L22.7765 13.3287L21.832 13ZM20.4194 13L19.484 12.6466L18.9727 14H20.4194V13ZM23.3735 5.17969V4.17969H22.6823L22.4381 4.82631L23.3735 5.17969ZM24.5928 5.17969L25.528 4.82575L25.2836 4.17969H24.5928V5.17969ZM27.5522 13V14H28.9999L28.4875 12.6461L27.5522 13ZM26.1343 13L25.1907 13.3312L25.4255 14H26.1343V13ZM22.8472 10.0835L21.9031 9.7537L21.4386 11.0835H22.8472V10.0835ZM25.1138 10.0835V11.0835H26.5224L26.0578 9.7537L25.1138 10.0835ZM23.9805 6.83936L24.9245 6.50956L23.9805 3.80715L23.0364 6.50956L23.9805 6.83936ZM25.4951 10.1792H22.4658V12.1792H25.4951V10.1792ZM21.5214 10.8505L20.8876 12.6713L22.7765 13.3287L23.4102 11.5079L21.5214 10.8505ZM21.832 12H20.4194V14H21.832V12ZM21.3549 13.3534L24.309 5.53306L22.4381 4.82631L19.484 12.6466L21.3549 13.3534ZM23.3735 6.17969H24.5928V4.17969H23.3735V6.17969ZM23.6575 5.53363L26.617 13.3539L28.4875 12.6461L25.528 4.82575L23.6575 5.53363ZM27.5522 12H26.1343V14H27.5522V12ZM27.0778 12.6688L26.4387 10.848L24.5516 11.5104L25.1907 13.3312L27.0778 12.6688ZM22.8472 11.0835H25.1138V9.0835H22.8472V11.0835ZM26.0578 9.7537L24.9245 6.50956L23.0364 7.16915L24.1697 10.4133L26.0578 9.7537ZM23.0364 6.50956L21.9031 9.7537L23.7912 10.4133L24.9245 7.16915L23.0364 6.50956ZM31.1348 8.00488L30.2704 8.50773L31.1348 9.99355L31.9991 8.50773L31.1348 8.00488ZM32.7783 5.17969V4.17969H32.2032L31.9139 4.67684L32.7783 5.17969ZM34.3467 5.17969L35.2006 5.70008L36.1272 4.17969H34.3467V5.17969ZM31.9834 9.05762L31.1295 8.53722L30.8114 9.05918L31.1309 9.58029L31.9834 9.05762ZM34.4004 13V14H36.1864L35.2529 12.4773L34.4004 13ZM32.8159 13L31.9532 13.5057L32.2429 14H32.8159V13ZM31.1348 10.1318L31.9975 9.62616L31.1361 8.15664L30.2727 9.62496L31.1348 10.1318ZM29.4482 13V14H30.0203L30.3103 13.5069L29.4482 13ZM27.8691 13L27.0171 12.4765L26.081 14H27.8691V13ZM30.2915 9.05762L31.1435 9.58113L31.4642 9.05917L31.1449 8.53636L30.2915 9.05762ZM27.9229 5.17969V4.17969H26.1403L27.0695 5.70095L27.9229 5.17969ZM29.4912 5.17969L30.3556 4.67684L30.0664 4.17969H29.4912V5.17969ZM31.9991 8.50773L33.6427 5.68254L31.9139 4.67684L30.2704 7.50203L31.9991 8.50773ZM32.7783 6.17969H34.3467V4.17969H32.7783V6.17969ZM33.4928 4.65929L31.1295 8.53722L32.8373 9.57801L35.2006 5.70008L33.4928 4.65929ZM31.1309 9.58029L33.5479 13.5227L35.2529 12.4773L32.8359 8.53495L31.1309 9.58029ZM34.4004 12H32.8159V14H34.4004V12ZM33.6786 12.4943L31.9975 9.62616L30.272 10.6375L31.9532 13.5057L33.6786 12.4943ZM30.2727 9.62496L28.5862 12.4931L30.3103 13.5069L31.9968 10.6387L30.2727 9.62496ZM29.4482 12H27.8691V14H29.4482V12ZM28.7212 13.5235L31.1435 9.58113L29.4395 8.5341L27.0171 12.4765L28.7212 13.5235ZM31.1449 8.53636L28.7762 4.65843L27.0695 5.70095L29.4381 9.57888L31.1449 8.53636ZM27.9229 6.17969H29.4912V4.17969H27.9229V6.17969ZM28.6268 5.68254L30.2704 8.50773L31.9991 7.50203L30.3556 4.67684L28.6268 5.68254ZM36.8389 13V14H37.8389V13H36.8389ZM35.4854 13H34.4854V14H35.4854V13ZM35.4854 5.17969V4.17969H34.4854V5.17969H35.4854ZM36.8389 5.17969H37.8389V4.17969H36.8389V5.17969ZM36.8389 12H35.4854V14H36.8389V12ZM36.4854 13V5.17969H34.4854V13H36.4854ZM35.4854 6.17969H36.8389V4.17969H35.4854V6.17969ZM35.8389 5.17969V13H37.8389V5.17969H35.8389Z" fill="white" fill-opacity="0.59"/>
</svg>
