<svg width="62" height="23" viewBox="0 0 62 23" fill="none" xmlns="http://www.w3.org/2000/svg">
<path d="M7.26296 3.87031C8.14752 1.54049 10.3802 0 12.8723 0H49.8504C52.4165 0 54.6984 1.63177 55.5281 4.05992L59.2869 15.0599C60.6172 18.9532 57.7235 23 53.6092 23H8.69591C4.49625 23 1.59593 18.7965 3.08659 14.8703L7.26296 3.87031Z" fill="#E39115"/>
<path d="M22.8359 8.21875H19.2891V18H17.3281V8.21875H13.8125V6.625H22.8359V8.21875ZM29.7656 15.3516H25.3594L24.4375 18H22.3828L26.6797 6.625H28.4531L32.7578 18H30.6953L29.7656 15.3516ZM25.9141 13.7578H29.2109L27.5625 9.03906L25.9141 13.7578ZM37.9688 10.7344L40.3594 6.625H42.6406L39.2031 12.2656L42.7188 18H40.4141L37.9688 13.8281L35.5156 18H33.2188L36.7422 12.2656L33.2969 6.625H35.5781L37.9688 10.7344ZM46.2656 18H44.2969V6.625H46.2656V18Z" fill="black"/>
<path d="M22.8359 8.21875V9.21875H23.8359V8.21875H22.8359ZM19.2891 8.21875V7.21875H18.2891V8.21875H19.2891ZM19.2891 18V19H20.2891V18H19.2891ZM17.3281 18H16.3281V19H17.3281V18ZM17.3281 8.21875H18.3281V7.21875H17.3281V8.21875ZM13.8125 8.21875H12.8125V9.21875H13.8125V8.21875ZM13.8125 6.625V5.625H12.8125V6.625H13.8125ZM22.8359 6.625H23.8359V5.625H22.8359V6.625ZM22.8359 7.21875H19.2891V9.21875H22.8359V7.21875ZM18.2891 8.21875V18H20.2891V8.21875H18.2891ZM19.2891 17H17.3281V19H19.2891V17ZM18.3281 18V8.21875H16.3281V18H18.3281ZM17.3281 7.21875H13.8125V9.21875H17.3281V7.21875ZM14.8125 8.21875V6.625H12.8125V8.21875H14.8125ZM13.8125 7.625H22.8359V5.625H13.8125V7.625ZM21.8359 6.625V8.21875H23.8359V6.625H21.8359ZM29.7656 15.3516L30.7092 15.0203L30.4744 14.3516H29.7656V15.3516ZM25.3594 15.3516V14.3516H24.6486L24.415 15.0228L25.3594 15.3516ZM24.4375 18V19H25.1483L25.3819 18.3287L24.4375 18ZM22.3828 18L21.4473 17.6466L20.9361 19H22.3828V18ZM26.6797 6.625V5.625H25.9885L25.7442 6.27162L26.6797 6.625ZM28.4531 6.625L29.3884 6.27106L29.1439 5.625H28.4531V6.625ZM32.7578 18V19H34.2055L33.6931 17.6461L32.7578 18ZM30.6953 18L29.7518 18.3312L29.9865 19H30.6953V18ZM25.9141 13.7578L24.97 13.428L24.5055 14.7578H25.9141V13.7578ZM29.2109 13.7578V14.7578H30.6195L30.155 13.428L29.2109 13.7578ZM27.5625 9.03906L28.5066 8.70927L27.5625 6.00686L26.6184 8.70927L27.5625 9.03906ZM29.7656 14.3516H25.3594V16.3516H29.7656V14.3516ZM24.415 15.0228L23.4931 17.6713L25.3819 18.3287L26.3038 15.6803L24.415 15.0228ZM24.4375 17H22.3828V19H24.4375V17ZM23.3183 18.3534L27.6152 6.97838L25.7442 6.27162L21.4473 17.6466L23.3183 18.3534ZM26.6797 7.625H28.4531V5.625H26.6797V7.625ZM27.5179 6.97894L31.8225 18.3539L33.6931 17.6461L29.3884 6.27106L27.5179 6.97894ZM32.7578 17H30.6953V19H32.7578V17ZM31.6389 17.6688L30.7092 15.0203L28.8221 15.6828L29.7518 18.3312L31.6389 17.6688ZM25.9141 14.7578H29.2109V12.7578H25.9141V14.7578ZM30.155 13.428L28.5066 8.70927L26.6184 9.36886L28.2669 14.0876L30.155 13.428ZM26.6184 8.70927L24.97 13.428L26.8581 14.0876L28.5066 9.36886L26.6184 8.70927ZM37.9688 10.7344L37.1044 11.2372L37.9688 12.723L38.8331 11.2372L37.9688 10.7344ZM40.3594 6.625V5.625H39.7842L39.495 6.12215L40.3594 6.625ZM42.6406 6.625L43.4945 7.1454L44.4211 5.625H42.6406V6.625ZM39.2031 12.2656L38.3492 11.7452L38.0311 12.2672L38.3506 12.7883L39.2031 12.2656ZM42.7188 18V19H44.5048L43.5713 17.4773L42.7188 18ZM40.4141 18L39.5513 18.5057L39.8411 19H40.4141V18ZM37.9688 13.8281L38.8315 13.3224L37.9701 11.8529L37.1067 13.3212L37.9688 13.8281ZM35.5156 18V19H36.0877L36.3776 18.5069L35.5156 18ZM33.2188 18L32.3667 17.4765L31.4306 19H33.2188V18ZM36.7422 12.2656L37.5942 12.7891L37.9149 12.2672L37.5956 11.7444L36.7422 12.2656ZM33.2969 6.625V5.625H31.5143L32.4435 7.14626L33.2969 6.625ZM35.5781 6.625L36.4425 6.12215L36.1533 5.625H35.5781V6.625ZM38.8331 11.2372L41.2237 7.12785L39.495 6.12215L37.1044 10.2315L38.8331 11.2372ZM40.3594 7.625H42.6406V5.625H40.3594V7.625ZM41.7867 6.1046L38.3492 11.7452L40.057 12.786L43.4945 7.1454L41.7867 6.1046ZM38.3506 12.7883L41.8662 18.5227L43.5713 17.4773L40.0557 11.743L38.3506 12.7883ZM42.7188 17H40.4141V19H42.7188V17ZM41.2768 17.4943L38.8315 13.3224L37.106 14.3338L39.5513 18.5057L41.2768 17.4943ZM37.1067 13.3212L34.6536 17.4931L36.3776 18.5069L38.8308 14.335L37.1067 13.3212ZM35.5156 17H33.2188V19H35.5156V17ZM34.0708 18.5235L37.5942 12.7891L35.8902 11.7421L32.3667 17.4765L34.0708 18.5235ZM37.5956 11.7444L34.1503 6.10374L32.4435 7.14626L35.8888 12.7869L37.5956 11.7444ZM33.2969 7.625H35.5781V5.625H33.2969V7.625ZM34.7138 7.12785L37.1044 11.2372L38.8331 10.2315L36.4425 6.12215L34.7138 7.12785ZM46.2656 18V19H47.2656V18H46.2656ZM44.2969 18H43.2969V19H44.2969V18ZM44.2969 6.625V5.625H43.2969V6.625H44.2969ZM46.2656 6.625H47.2656V5.625H46.2656V6.625ZM46.2656 17H44.2969V19H46.2656V17ZM45.2969 18V6.625H43.2969V18H45.2969ZM44.2969 7.625H46.2656V5.625H44.2969V7.625ZM45.2656 6.625V18H47.2656V6.625H45.2656Z" fill="white"/>
</svg>
